<svg width="24" height="24" viewBox="0 0 24 24" fill="none" xmlns="http://www.w3.org/2000/svg">
<path d="M12.0932 1C6.0727 1 1 5.83706 1 11.8085C1 12 1.00488 23 1.00488 23L12.0933 22.9901C18.1188 22.9901 23 17.9666 23 11.9951C23 6.02373 18.1188 1 12.0932 1ZM12 18.2857C11.0473 18.2857 10.1388 18.0745 9.32853 17.6916L5.34597 18.6786L6.47047 14.9956C5.98926 14.1067 5.71423 13.0853 5.71423 12C5.71423 8.52815 8.52811 5.71428 12 5.71428C15.4719 5.71428 18.2857 8.52815 18.2857 12C18.2857 15.472 15.4719 18.2857 12 18.2857Z" fill="#333333"/>
</svg>
