<svg width="24" height="24" viewBox="0 0 24 24" fill="none" xmlns="http://www.w3.org/2000/svg">
<path fill-rule="evenodd" clip-rule="evenodd" d="M12 0C5.3625 0 0 5.3625 0 12C0 17.2875 3.45 21.7875 8.2125 23.4C8.8125 23.5125 9.0375 23.1375 9.0375 22.8375C9.0375 22.5375 9.0375 21.7875 9.0375 20.8125C5.7 21.525 4.9875 19.2 4.9875 19.2C4.425 17.8125 3.6375 17.4375 3.6375 17.4375C2.55 16.6875 3.7125 16.725 3.7125 16.725C4.9125 16.8 5.55 17.9625 5.55 17.9625C6.6375 19.8 8.3625 19.275 9.0375 18.975C9.15 18.1875 9.45 17.6625 9.7875 17.3625C7.125 17.0625 4.3125 16.0125 4.3125 11.4375C4.3125 10.125 4.7625 9.075 5.55 8.2125C5.4375 7.9125 5.025 6.675 5.6625 5.025C5.6625 5.025 6.675 4.6875 8.9625 6.2625C9.9375 6 10.95 5.85 11.9625 5.85C12.975 5.85 14.025 6 14.9625 6.2625C17.25 4.725 18.2625 5.025 18.2625 5.025C18.9 6.675 18.4875 7.9125 18.375 8.2125C19.1625 9.0375 19.6125 10.125 19.6125 11.4375C19.6125 16.05 16.8 17.0625 14.1375 17.3625C14.55 17.7375 14.9625 18.45 14.9625 19.575C14.9625 21.1875 14.9625 22.4625 14.9625 22.875C14.9625 23.2125 15.1875 23.5875 15.7875 23.4375C20.55 21.7875 24 17.2875 24 12C24 5.3625 18.6375 0 12 0Z" fill="#333333"/>
</svg>
