<svg width="24" height="24" viewBox="0 0 24 24" fill="none" xmlns="http://www.w3.org/2000/svg">
    <path d="M4.62766 4.66345C6.17274 3.11837 8.68464 3.11837 10.2297 4.66345L13.844 8.27769L15.5607 6.56093L11.9465 2.94669C9.45266 0.452869 5.40472 0.452869 2.91089 2.94669C0.417071 5.44052 0.417071 9.48846 2.91089 11.9823L6.52513 15.5965L8.24189 13.8798L4.62766 10.2655C3.08257 8.72044 3.08257 6.20854 4.62766 4.66345ZM7.42869 9.27161L14.6572 16.5001L16.4643 14.693L9.23581 7.46449L7.42869 9.27161ZM20.9821 11.9823L17.3678 8.36805L15.6511 10.0848L19.2653 13.699C20.8104 15.2441 20.8104 17.756 19.2653 19.3011C17.7202 20.8462 15.2083 20.8462 13.6632 19.3011L10.049 15.6869L8.33225 17.4036L11.9465 21.0179C14.4403 23.5117 18.4883 23.5117 20.9821 21.0179C23.4759 18.5241 23.4759 14.4761 20.9821 11.9823Z" fill="#333333"/>
</svg>
