<svg width="24" height="24" viewBox="0 0 24 24" fill="none" xmlns="http://www.w3.org/2000/svg">
<path fill-rule="evenodd" clip-rule="evenodd" d="M1 4.35878C1 3.01688 2.03589 2 3.61924 2C5.20139 2 6.17406 3.01448 6.20507 4.35519C6.20507 5.67205 5.20139 6.71456 3.58942 6.71456H3.55841C2.00666 6.71456 1 5.67562 1 4.35878ZM17.5581 8.28158C15.1017 8.28158 13.5625 9.61217 13.278 10.5449V8.41225H8.46122C8.52324 9.54475 8.46122 21.9995 8.46122 21.9995H13.278V14.647C13.278 14.5987 13.2778 14.5505 13.2775 14.5025C13.2756 14.1436 13.2736 13.7952 13.383 13.5365C13.714 12.7194 14.4255 11.8719 15.7046 11.8719C17.3775 11.8719 18.1378 13.128 18.1378 14.9685V21.9995H23V14.4448C23 10.236 20.6056 8.28158 17.5581 8.28158ZM1.55371 8.41275H5.84157V22H1.55371V8.41275Z" fill="#333333"/>
</svg>
