<svg width="24" height="24" viewBox="0 0 24 24" fill="none" xmlns="http://www.w3.org/2000/svg">
<path d="M22.3125 1H1.6875C1.50516 1 1.3303 1.07243 1.20136 1.20136C1.07243 1.3303 1 1.50516 1 1.6875L1 22.3125C1 22.4948 1.07243 22.6697 1.20136 22.7986C1.3303 22.9276 1.50516 23 1.6875 23H22.3125C22.4948 23 22.6697 22.9276 22.7986 22.7986C22.9276 22.6697 23 22.4948 23 22.3125V1.6875C23 1.50516 22.9276 1.3303 22.7986 1.20136C22.6697 1.07243 22.4948 1 22.3125 1V1ZM19.2768 6.21228L18.0971 7.34356C18.0471 7.38153 18.0085 7.43245 17.9854 7.4908C17.9623 7.54916 17.9557 7.61272 17.9661 7.67459V15.9875C17.9557 16.0494 17.9623 16.1129 17.9854 16.1713C18.0085 16.2296 18.0471 16.2806 18.0971 16.3185L19.2493 17.4498V17.698H13.4534V17.4498L14.6469 16.2903C14.7641 16.1731 14.7641 16.1388 14.7641 15.9593V9.24072L11.4455 17.6698H10.9987L7.13319 9.24072V14.8899C7.11729 15.0071 7.12828 15.1264 7.16533 15.2387C7.20237 15.351 7.2645 15.4535 7.347 15.5382L8.89937 17.4213V17.6695H4.49731V17.4213L6.04969 15.5382C6.13152 15.4534 6.19226 15.3505 6.22701 15.2379C6.26177 15.1253 6.26956 15.0061 6.24975 14.8899V8.35866C6.25855 8.26945 6.24627 8.17943 6.21391 8.09584C6.18155 8.01225 6.13001 7.93743 6.06344 7.87741L4.68362 6.21503V5.96684H8.96847L12.2805 13.2303L15.1924 5.96684H19.2768V6.21228Z" fill="#333333"/>
</svg>
