<svg width="24" height="24" viewBox="0 0 24 24" fill="none" xmlns="http://www.w3.org/2000/svg">
<path d="M23 5.33654C22.175 5.67308 21.3156 5.94231 20.4219 6.04327C21.35 5.50481 22.0719 4.62981 22.4156 3.58654C21.5562 4.09135 20.5938 4.46154 19.5625 4.66346C18.7031 3.78846 17.5344 3.25 16.2281 3.25C13.7187 3.25 11.725 5.23558 11.725 7.65865C11.725 7.99519 11.7594 8.33173 11.8281 8.66827C8.08125 8.5 4.74688 6.71635 2.54688 4.05769C2.16875 4.69712 1.92813 5.47115 1.92813 6.27885C1.92813 7.82692 2.71875 9.17308 3.92188 9.94712C3.16562 9.91346 2.47812 9.71154 1.89375 9.40865C1.89375 9.44231 1.89375 9.44231 1.89375 9.47596C1.89375 11.6298 3.44063 13.4135 5.50313 13.8173C5.125 13.9183 4.7125 13.9856 4.3 13.9856C4.025 13.9856 3.71562 13.9519 3.44062 13.9183C4.025 15.6683 5.675 16.9471 7.66875 16.9808C6.12187 18.1587 4.1625 18.8654 2.06562 18.8654C1.6875 18.8654 1.34375 18.8317 1 18.7981C2.99375 20.0096 5.36563 20.75 7.90938 20.75C16.2281 20.75 20.7656 14.0192 20.7656 8.16346C20.7656 7.96154 20.7656 7.79327 20.7656 7.59135C21.625 6.98558 22.3813 6.21154 23 5.33654Z" fill="#C4C4C4"/>
</svg>
