<svg width="24" height="24" viewBox="0 0 24 24" fill="none" xmlns="http://www.w3.org/2000/svg">
<path d="M23.775 7.6375C23.775 7.6375 23.55 5.9875 22.8375 5.2375C21.9375 4.3 20.8875 4.2625 20.4375 4.225C17.025 4 12 4 12 4C12 4 6.975 4 3.6 4.225C3.1125 4.2625 2.1 4.3 1.2 5.2375C0.4875 5.95 0.2625 7.6375 0.2625 7.6375C0.2625 7.6375 0 9.5875 0 11.5375V13.375C0 15.325 0.225 17.275 0.225 17.275C0.225 17.275 0.45 18.925 1.1625 19.675C2.0625 20.6125 3.2625 20.6125 3.825 20.6875C5.7375 20.875 12 20.9125 12 20.9125C12 20.9125 17.025 20.9125 20.4 20.65C20.8875 20.6125 21.9 20.575 22.8 19.6375C23.5125 18.925 23.7375 17.2375 23.7375 17.2375C23.7375 17.2375 24 15.2875 24 13.3375V11.5C24 9.5875 23.775 7.6375 23.775 7.6375ZM9.525 15.55V8.8L16.0125 12.175L9.525 15.55Z" fill="#333333"/>
</svg>
