<svg width="113" height="98" viewBox="0 0 113 98" fill="none" xmlns="http://www.w3.org/2000/svg">
    <path fill-rule="evenodd" clip-rule="evenodd" d="M1 0.5C0.723858 0.5 0.5 0.723858 0.5 1V26.8462V97C0.5 97.2761 0.723858 97.5 1 97.5H111.769C112.045 97.5 112.269 97.2761 112.269 97V26.8462V1C112.269 0.723858 112.045 0.5 111.769 0.5H1ZM111.269 26.3462V1.5H1.5V26.3462H111.269ZM1.5 27.3462H111.269V96.5H1.5V27.3462ZM15.769 13.4229C15.4929 13.4229 15.269 13.6467 15.269 13.9229C15.269 14.199 15.4929 14.4229 15.769 14.4229H23.1537C23.4298 14.4229 23.6537 14.199 23.6537 13.9229C23.6537 13.6467 23.4298 13.4229 23.1537 13.4229H15.769ZM19.1079 44.9541C19.3031 44.7588 19.6197 44.7588 19.815 44.9541L34.5842 59.7233C34.7795 59.9186 34.7795 60.2351 34.5842 60.4304L19.815 75.1996C19.6197 75.3949 19.3031 75.3949 19.1079 75.1996C18.9126 75.0044 18.9126 74.6878 19.1079 74.4925L33.5235 60.0768L19.1079 45.6612C18.9126 45.4659 18.9126 45.1493 19.1079 44.9541ZM41.1157 74.8462C41.1157 74.57 41.3396 74.3462 41.6157 74.3462H63.7696C64.0457 74.3462 64.2696 74.57 64.2696 74.8462C64.2696 75.1223 64.0457 75.3462 63.7696 75.3462H41.6157C41.3396 75.3462 41.1157 75.1223 41.1157 74.8462ZM33.731 13.9229C33.731 13.6467 33.9548 13.4229 34.231 13.4229H41.6156C41.8917 13.4229 42.1156 13.6467 42.1156 13.9229C42.1156 14.199 41.8917 14.4229 41.6156 14.4229H34.231C33.9548 14.4229 33.731 14.199 33.731 13.9229ZM76.6924 13.4229C76.4162 13.4229 76.1924 13.6467 76.1924 13.9229C76.1924 14.199 76.4162 14.4229 76.6924 14.4229H97.0001C97.2762 14.4229 97.5001 14.199 97.5001 13.9229C97.5001 13.6467 97.2762 13.4229 97.0001 13.4229H76.6924Z" fill="#ED1E79"/>
</svg>