<svg  width="105" height="105" viewBox="0 0 105 105" fill="none" xmlns="http://www.w3.org/2000/svg">
    <path fill-rule="evenodd" clip-rule="evenodd" d="M52.6374 0.519238C52.5476 0.493587 52.4524 0.493587 52.3626 0.519238L0.862639 15.2335C0.647989 15.2949 0.5 15.491 0.5 15.7143V15.7145C0.5 15.7145 0.5 15.7145 0.5 15.7145V85.6071C0.5 85.8185 0.632835 86.0069 0.831832 86.078L52.3318 104.471C52.4406 104.51 52.5594 104.51 52.6682 104.471L104.168 86.078C104.367 86.0069 104.5 85.8185 104.5 85.6071V15.731C104.502 15.6699 104.493 15.6074 104.471 15.5463C104.441 15.4627 104.391 15.392 104.329 15.3375C104.275 15.2903 104.21 15.2542 104.137 15.2335L52.6374 0.519238ZM102.366 15.7673L52.5 1.52001L2.63455 15.7673L52.5001 33.5764L102.366 15.7673ZM1.5 16.4239V85.2548L52 103.29V34.4597L1.5 16.4239ZM53 103.29L103.5 85.2548V16.424L53 34.4598V103.29Z" fill="#29ABE2"/>
</svg>