<svg width="16" height="21" viewBox="0 0 16 21" fill="none" xmlns="http://www.w3.org/2000/svg">
    <path d="M11 4H3V5H11V4Z" fill="black"/>
    <path d="M3 7H13V8H3V7Z" fill="black"/>
    <path d="M13 10H3V11H13V10Z" fill="black"/>
    <path d="M3 13H13V14H3V13Z" fill="black"/>
    <path d="M13 16H3V17H13V16Z" fill="black"/>
    <path fill-rule="evenodd" clip-rule="evenodd" d="M0 3C0 1.34315 1.34315 0 3 0H13C14.6569 0 16 1.34315 16 3V18C16 19.6569 14.6569 21 13 21H3C1.34315 21 0 19.6569 0 18V3ZM3 1H13C14.1046 1 15 1.89543 15 3V18C15 19.1046 14.1046 20 13 20H3C1.89543 20 1 19.1046 1 18V3C1 1.89543 1.89543 1 3 1Z" fill="black"/>
</svg>