<svg width="82" height="127" viewBox="0 0 82 127" fill="none" xmlns="http://www.w3.org/2000/svg">
    <path d="M28.1769 27.1182L28.8229 27.8815L16.274 38.4999L28.8229 49.1182L28.1769 49.8815L14.7258 38.4999L28.1769 27.1182Z" fill="#522785"/>
    <path d="M51.6771 27.8815L52.3231 27.1182L65.7742 38.4999L52.3231 49.8815L51.6771 49.1182L64.226 38.4999L51.6771 27.8815Z" fill="#522785"/>
    <path d="M45.4887 23.6058L38.9887 53.6058L38.0114 53.394L44.5114 23.394L45.4887 23.6058Z" fill="#522785"/>
    <path d="M59 63C59.5523 63 60 62.5523 60 62C60 61.4477 59.5523 61 59 61C58.4477 61 58 61.4477 58 62C58 62.5523 58.4477 63 59 63Z" fill="#522785"/>
    <path fill-rule="evenodd" clip-rule="evenodd" d="M73.4987 66.0017L73.4995 66.0006L73.4987 66L73.5 65.9983C73.7533 65.6695 74.0018 65.3367 74.2452 65C79.1243 58.2532 82 49.9624 82 41C82 18.3563 63.6437 0 41 0C18.3563 0 0 18.3563 0 41C0 49.9624 2.87571 58.2532 7.75476 65C7.99822 65.3367 8.24667 65.6695 8.5 65.9983L8.50082 65.9994L8.5 66L8.50129 66.0018C8.52184 66.0298 8.78793 66.3934 9.22974 67C11.6074 70.2645 19.0743 80.5676 20.75 83.5C22.75 87 23 101 23 101H59C59 101 59.75 88 61.75 83.5C63.4138 79.7565 70.4409 70.1306 72.7565 67C73.206 66.3923 73.478 66.0294 73.4987 66.0017ZM71.466 67H71.5138L71.1389 67.5102C70.1911 68.8026 68.906 70.5735 67.5577 72.4863C64.8894 76.2715 61.8847 80.7346 60.8362 83.0939C60.287 84.3295 59.8484 86.0803 59.4941 87.9463C59.1363 89.8309 58.8518 91.9041 58.6315 93.8235C58.411 95.7448 58.2537 97.5228 58.1515 98.8199C58.1155 99.2777 58.0862 99.676 58.0635 100H47.0001V76.1784L51.3871 70.8165L50.6131 70.1833L46.0001 75.8214V100H36.0001V75.8303L24.3969 60.6957L23.6033 61.3041L35.0001 76.1695V100H23.9744C23.9636 99.6495 23.9488 99.216 23.9289 98.7178C23.8739 97.3422 23.7795 95.469 23.6219 93.4834C23.4645 91.5008 23.243 89.3902 22.9314 87.5445C22.6271 85.7426 22.2158 84.0496 21.6182 83.0039C20.5868 81.1988 17.4867 76.7734 14.6887 72.8563C13.2806 70.8848 11.9353 69.0233 10.9421 67.6548C10.7729 67.4216 10.6139 67.2027 10.4665 67H10.534L9.29346 65.3897C4.09256 58.6388 1 50.182 1 41C1 18.9086 18.9086 1 41 1C63.0914 1 81 18.9086 81 41C81 50.182 77.9074 58.6388 72.7065 65.3897L71.466 67Z" fill="#522785"/>
    <path fill-rule="evenodd" clip-rule="evenodd" d="M23 107.5C23 111.918 26.5817 115.5 31 115.5V120.5C31 123.814 33.6863 126.5 37 126.5H45C48.3137 126.5 51 123.814 51 120.5V115.5C55.4183 115.5 59 111.918 59 107.5V103.5H23V107.5ZM58 107.5V104.5H24V107.5C24 111.366 27.134 114.5 31 114.5H51C54.866 114.5 58 111.366 58 107.5ZM32 120.5V115.5H50V120.5C50 123.261 47.7614 125.5 45 125.5H37C34.2386 125.5 32 123.261 32 120.5Z" fill="#522785"/>
</svg>