<svg width="124" height="124" viewBox="0 0 124 124" fill="none" xmlns="http://www.w3.org/2000/svg">
    <path fill-rule="evenodd" clip-rule="evenodd" d="M121.186 1.91358L120.709 2.06434L120.852 1.5852C121.011 1.63257 121.136 1.75556 121.186 1.91358ZM80.4383 79.6752C83.9353 77.3378 87.6666 74.8443 91.4649 72.3069C112.896 57.9898 120.345 40.4016 122.419 26.378C123.454 19.3735 123.148 13.266 122.583 8.90813C122.3 6.72874 121.953 4.98551 121.675 3.78468C121.536 3.18423 121.415 2.71924 121.327 2.403C121.284 2.24488 121.249 2.12393 121.224 2.04181C121.212 2.00075 121.203 1.9694 121.196 1.94796L121.189 1.92326L121.187 1.91653L121.186 1.91458C121.186 1.914 121.186 1.91358 120.709 2.06434C120.852 1.5852 120.851 1.58507 120.851 1.5849L120.849 1.58433L120.842 1.58238L120.818 1.57535C120.797 1.56931 120.766 1.56058 120.726 1.54943C120.646 1.52713 120.528 1.49513 120.374 1.45548C120.065 1.37616 119.611 1.2662 119.025 1.1419C117.853 0.893341 116.151 0.587358 114.021 0.354714C109.762 -0.110491 103.786 -0.282993 96.9148 0.886405C83.1574 3.2276 65.8403 10.9433 51.527 32.369C49.0364 36.0971 46.5394 39.8337 44.1755 43.3702C42.9243 43.1248 39.1103 42.4385 34.5822 42.2229C29.5457 41.9832 23.5268 42.3197 19.185 44.5774C14.7005 46.9093 10.2807 50.7031 6.99621 53.8927C5.3504 55.491 3.98251 56.9447 3.02573 57.9992C2.54723 58.5265 2.1713 58.9543 1.91457 59.2508C1.78619 59.3991 1.6876 59.5145 1.62087 59.5931C1.58751 59.6325 1.56211 59.6626 1.54493 59.683L1.52536 59.7064L1.51889 59.7141C1.51878 59.7142 1.51832 59.7148 1.90256 60.0347L1.51889 59.7141C1.40422 59.8518 1.37145 60.0411 1.43394 60.2091C1.49643 60.377 1.64405 60.4987 1.82086 60.528L30.4765 65.2742L38.7425 73.5402C34.5314 78.3485 32.0187 83.6339 30.5538 87.7454C29.8028 89.8532 29.3258 91.6564 29.0362 92.9349C28.8913 93.5742 28.7933 94.0827 28.7313 94.4328C28.7003 94.6079 28.6782 94.7434 28.6639 94.836C28.6567 94.8822 28.6514 94.9178 28.6479 94.9421L28.6438 94.9702L28.6425 94.9801C28.6424 94.9803 28.6423 94.9812 29.1378 95.0482L28.6423 94.9812C28.6212 95.1378 28.6753 95.2952 28.7882 95.4056C28.9012 95.5161 29.0597 95.5667 29.2158 95.5421L29.1378 95.0482C29.2158 95.5421 29.2156 95.5421 29.2158 95.5421L29.2169 95.5419L29.2191 95.5415L29.2268 95.5403L29.2552 95.5356C29.28 95.5315 29.3161 95.5253 29.3632 95.517C29.4573 95.5004 29.5954 95.4752 29.7737 95.4402C30.1302 95.3701 30.6478 95.2611 31.2972 95.104C32.596 94.79 34.4237 94.2837 36.5472 93.5133C40.6856 92.0121 45.9662 89.5011 50.6419 85.4396L58.7198 93.5174L62.938 121.639C62.9648 121.817 63.0858 121.968 63.2545 122.032C63.4233 122.096 63.6136 122.064 63.7524 121.949L63.4324 121.565C63.7524 121.949 63.7522 121.949 63.7524 121.949L63.7608 121.942L63.7841 121.922C63.8046 121.905 63.8347 121.88 63.874 121.846C63.9527 121.78 64.0681 121.681 64.2164 121.553C64.5128 121.296 64.9406 120.92 65.468 120.441C66.5225 119.485 67.9762 118.117 69.5745 116.471C72.7641 113.187 76.5579 108.767 78.8898 104.282C81.124 99.9854 81.5536 94.1191 81.4075 89.1918C81.2752 84.7264 80.6669 80.9575 80.4383 79.6752ZM63.7927 120.596C64.0604 120.361 64.3995 120.061 64.796 119.701C65.8385 118.755 67.2764 117.402 68.8571 115.774C72.0253 112.512 75.7384 108.175 78.0026 103.821C80.1128 99.7625 80.553 94.1147 80.408 89.2214C80.2636 84.3477 79.5426 80.3126 79.396 79.5347C79.3588 79.3378 79.4428 79.1377 79.6094 79.0264C83.1851 76.6364 87.012 74.079 90.9094 71.4754C112.081 57.3314 119.393 40.0062 121.43 26.2317C122.449 19.3371 122.147 13.3243 121.591 9.03676C121.313 6.8934 120.972 5.18258 120.701 4.01004C120.565 3.42382 120.447 2.97229 120.363 2.66869C120.343 2.59414 120.324 2.52851 120.308 2.472C120.255 2.45782 120.194 2.44175 120.125 2.42401C119.829 2.34804 119.389 2.24135 118.818 2.12015C117.675 1.87775 116.005 1.57744 113.912 1.3488C109.725 0.891448 103.845 0.721439 97.0826 1.87223C83.5721 4.17141 66.5061 11.7469 52.3585 32.9245C49.8024 36.7507 47.2396 40.5857 44.8209 44.2043C44.7077 44.3736 44.5031 44.4574 44.3037 44.416C43.6298 44.2763 39.5194 43.4591 34.5346 43.2218C29.5281 42.9835 23.7388 43.3366 19.6464 45.4646C15.292 47.7288 10.9553 51.4419 7.69288 54.6101C6.06527 56.1907 4.71216 57.6287 3.76631 58.6711C3.4011 59.0737 3.09676 59.417 2.86094 59.6867L30.7983 64.3138C30.9012 64.3309 30.9963 64.3797 31.0701 64.4536L39.7826 73.1661C39.9705 73.3539 39.9786 73.6559 39.8011 73.8537C35.5123 78.6302 32.9679 83.9492 31.4958 88.081C30.7602 90.1456 30.2937 91.9099 30.0115 93.1558C29.894 93.6743 29.8085 94.1027 29.7489 94.4254C30.0808 94.3581 30.5244 94.2621 31.0622 94.132C32.3312 93.8252 34.1229 93.329 36.2062 92.5733C40.3765 91.0604 45.6952 88.5144 50.331 84.3811C50.5289 84.2047 50.8299 84.2134 51.0173 84.4008L59.5433 92.9268C59.619 93.0024 59.6684 93.1004 59.6842 93.2062L63.7927 120.596Z" fill="#F15A24"/>
    <path fill-rule="evenodd" clip-rule="evenodd" d="M121.186 1.91358L120.709 2.06434L120.852 1.5852C121.011 1.63257 121.136 1.75556 121.186 1.91358ZM59.1906 93.2811C59.4686 93.6967 59.4687 93.6967 59.4688 93.6966L62.1279 91.9179C63.8275 90.7811 66.267 89.1496 69.2265 87.1707C75.1455 83.2128 83.1445 77.8653 91.4649 72.3069C112.896 57.9898 120.345 40.4016 122.419 26.378C123.454 19.3735 123.148 13.266 122.583 8.90813C122.3 6.72874 121.953 4.98551 121.675 3.78468C121.536 3.18423 121.415 2.71924 121.327 2.403C121.284 2.24488 121.249 2.12393 121.224 2.04181C121.212 2.00075 121.203 1.9694 121.196 1.94796L121.189 1.92326L121.187 1.91653L121.186 1.91458C121.186 1.914 121.186 1.91358 120.709 2.06434C120.852 1.5852 120.851 1.58507 120.851 1.5849L120.849 1.58433L120.842 1.58238L120.818 1.57535C120.797 1.56931 120.766 1.56058 120.726 1.54943C120.646 1.52713 120.528 1.49513 120.374 1.45548C120.065 1.37616 119.611 1.2662 119.025 1.1419C117.853 0.893341 116.151 0.587358 114.021 0.354714C109.762 -0.110491 103.786 -0.282993 96.9148 0.886405C83.1574 3.2276 65.8403 10.9433 51.527 32.369C46.2086 40.33 40.8612 48.3291 36.8433 54.338C34.8344 57.3424 33.1578 59.8492 31.9835 61.6049L30.1377 64.3646C30.1376 64.3647 30.1372 64.3653 30.5528 64.6433L30.1377 64.3646C30.005 64.5629 30.0305 64.8281 30.1992 64.9969L38.4948 73.2924C38.69 73.4877 39.0066 73.4877 39.2019 73.2924C39.3971 73.0971 39.3971 72.7806 39.2019 72.5853L31.1966 64.5801L32.8148 62.1609C33.9891 60.4051 35.6656 57.8983 37.6746 54.8938C41.6925 48.8849 47.04 40.8857 52.3585 32.9245C66.5061 11.7469 83.5721 4.17141 97.0826 1.87223C103.845 0.721439 109.725 0.891448 113.912 1.3488C116.005 1.57744 117.675 1.87775 118.818 2.12015C119.389 2.24135 119.829 2.34804 120.125 2.42401C120.194 2.44175 120.255 2.45782 120.308 2.472C120.324 2.52851 120.343 2.59414 120.363 2.66869C120.447 2.97229 120.565 3.42382 120.701 4.01004C120.972 5.18258 121.313 6.8934 121.591 9.03676C122.147 13.3243 122.449 19.3371 121.43 26.2317C119.393 40.0062 112.081 57.3314 90.9094 71.4754C82.5889 77.0339 74.5897 82.3815 68.6706 86.3394C65.7111 88.3183 63.2716 89.9499 61.572 91.0867L59.2538 92.6373L51.2227 84.6061C51.0274 84.4109 50.7108 84.4109 50.5156 84.6061C50.3203 84.8014 50.3203 85.118 50.5156 85.3132L58.837 93.6347C59.0058 93.8034 59.2704 93.8293 59.4688 93.6966L59.1906 93.2811Z" fill="#F15A24"/>
    <path d="M118.751 38.9977L84.8102 5.05658L85.5173 4.34947L119.458 38.2906L118.751 38.9977Z" fill="#F15A24"/>
    <path d="M96.6665 34.5905C97.057 34.9811 97.6902 34.9811 98.0807 34.5905C98.4713 34.2 98.4713 33.5669 98.0807 33.1763C97.6902 32.7858 97.057 32.7858 96.6665 33.1763C96.276 33.5669 96.276 34.2 96.6665 34.5905Z" fill="#F15A24"/>
    <path fill-rule="evenodd" clip-rule="evenodd" d="M85.3528 57.218C79.8855 62.6853 71.0212 62.6853 65.5538 57.218C60.0865 51.7506 60.0865 42.8863 65.5538 37.419C71.0212 31.9516 79.8855 31.9516 85.3528 37.419C90.8202 42.8863 90.8202 51.7506 85.3528 57.218ZM84.6457 56.5109C79.5689 61.5877 71.3377 61.5877 66.2609 56.5109C61.1841 51.434 61.1841 43.2029 66.2609 38.1261C71.3377 33.0493 79.5689 33.0493 84.6457 38.1261C89.7225 43.2029 89.7225 51.434 84.6457 56.5109Z" fill="#F15A24"/>
    <path d="M60.3886 64.198L59.897 64.289L60.0094 63.8018C60.2034 63.8466 60.3524 64.0022 60.3886 64.198Z" fill="#F15A24"/>
    <path fill-rule="evenodd" clip-rule="evenodd" d="M29.1378 95.0482C28.6423 94.9812 28.6424 94.9803 28.6425 94.9801L28.6428 94.9776L28.644 94.9692L28.6484 94.9383C28.6523 94.9116 28.6581 94.8725 28.6661 94.8216C28.682 94.7198 28.7065 94.5707 28.741 94.3784C28.81 93.9938 28.9194 93.4358 29.0817 92.7365C29.4061 91.3381 29.9422 89.3726 30.7906 87.0954C32.4862 82.5441 35.4358 76.7294 40.4515 71.7137C42.4694 69.6958 44.4615 68.1674 46.3583 67.0138L36.0199 56.6754C35.8246 56.4801 35.8246 56.1635 36.0199 55.9683C36.2151 55.773 36.5317 55.773 36.727 55.9683L47.2521 66.4934C49.7329 65.1129 52.0253 64.3635 53.9653 63.9755C55.7771 63.6131 57.2761 63.567 58.3277 63.6127C58.8535 63.6356 59.2676 63.6814 59.5534 63.7222C59.6962 63.7427 59.8071 63.7618 59.8838 63.7762C59.9221 63.7835 59.9519 63.7895 59.9729 63.7939L59.9979 63.7992L60.0053 63.8009L60.0078 63.8015L60.0094 63.8018C60.0098 63.8019 60.0094 63.8018 59.897 64.289C60.3886 64.198 60.3885 64.1976 60.3886 64.198L60.3889 64.1995L60.3893 64.2019L60.3907 64.2094L60.395 64.2346C60.3985 64.2561 60.4034 64.2866 60.4092 64.3259C60.4207 64.4045 60.4359 64.5183 60.4515 64.6651C60.4826 64.9585 60.5154 65.3837 60.524 65.9218C60.541 66.9979 60.4612 68.527 60.0769 70.3579C59.676 72.2682 58.9445 74.5031 57.6501 76.8914L67.8397 87.081C68.0349 87.2762 68.0349 87.5928 67.8397 87.7881C67.6444 87.9833 67.3278 87.9833 67.1326 87.7881L57.138 77.7935C55.9951 79.7192 54.4787 81.7281 52.4723 83.7345C47.6322 88.5746 41.8168 91.5235 37.2256 93.2619C34.9278 94.1319 32.9306 94.701 31.5061 95.053C30.7937 95.229 30.2241 95.3508 29.8311 95.4288C29.6347 95.4678 29.4823 95.4959 29.3784 95.5143C29.3264 95.5236 29.2865 95.5304 29.2592 95.5349L29.2279 95.5401L29.2191 95.5415L29.2169 95.5419C29.2167 95.5419 29.2158 95.5421 29.1378 95.0482ZM29.7489 94.4254C30.1219 94.3497 30.636 94.2379 31.2663 94.0822C32.6591 93.738 34.6173 93.1802 36.8715 92.3267C41.3843 90.6179 47.0594 87.7332 51.7652 83.0274C56.4638 78.3288 58.3652 73.6456 59.0983 70.1525C59.4653 68.4038 59.5402 66.9497 59.5241 65.9377C59.5161 65.4317 59.4853 65.0365 59.4571 64.7706L59.4513 64.7179L59.4119 64.7122C59.1563 64.6757 58.7749 64.6331 58.2843 64.6118C57.3029 64.5691 55.8851 64.6114 54.1614 64.9561C50.7196 65.6445 46.0364 67.543 41.1586 72.4208C36.2749 77.3045 33.3908 82.9803 31.7277 87.4446C30.8967 89.6752 30.3722 91.5988 30.0558 92.9625C29.9152 93.5684 29.8158 94.0634 29.7489 94.4254Z" fill="#F15A24"/>
    <path d="M29.1378 95.0482L29.2158 95.5421C29.0597 95.5667 28.9012 95.5161 28.7882 95.4056C28.6753 95.2952 28.6213 95.1367 28.6425 94.9801L29.1378 95.0482Z" fill="#F15A24"/>
    <path d="M19.9454 81.6131C20.1407 81.4179 20.1407 81.1013 19.9454 80.906C19.7502 80.7108 19.4336 80.7108 19.2383 80.906L0.146445 99.9979C-0.0488138 100.193 -0.0488165 100.51 0.146445 100.705C0.341707 100.9 0.658293 100.9 0.853552 100.705L19.9454 81.6131Z" fill="#F15A24"/>
    <path d="M19.9454 102.826C20.1407 103.022 20.1407 103.338 19.9454 103.533L0.853552 122.625C0.658293 122.821 0.341707 122.821 0.146445 122.625C-0.0488165 122.43 -0.0488138 122.113 0.146445 121.918L19.2383 102.826C19.4336 102.631 19.7502 102.631 19.9454 102.826Z" fill="#F15A24"/>
    <path d="M41.8657 104.241C42.061 104.045 42.061 103.729 41.8657 103.533C41.6705 103.338 41.3539 103.338 41.1586 103.533L22.0668 122.625C21.8715 122.821 21.8715 123.137 22.0668 123.332C22.262 123.528 22.5786 123.528 22.7739 123.332L41.8657 104.241Z" fill="#F15A24"/>
    <path d="M74.5572 10.3599C74.3619 10.1646 74.0453 10.1646 73.8501 10.3599C73.6548 10.5551 73.6548 10.8717 73.8501 11.067L90.3026 27.5195C90.4978 27.7147 90.8144 27.7147 91.0097 27.5195C91.2049 27.3242 91.2049 27.0076 91.0097 26.8124L74.5572 10.3599Z" fill="#F15A24"/>
    <path d="M103.384 39.1867C103.189 38.9915 102.872 38.9915 102.677 39.1867C102.482 39.382 102.482 39.6986 102.677 39.8938L112.741 49.9579C112.936 50.1531 113.253 50.1531 113.448 49.9579C113.643 49.7626 113.643 49.446 113.448 49.2508L103.384 39.1867Z" fill="#F15A24"/>
</svg>