<svg width="118" height="122" viewBox="0 0 118 122" fill="none" xmlns="http://www.w3.org/2000/svg">
    <path fill-rule="evenodd" clip-rule="evenodd" d="M59.1532 0.565878C58.9995 0.478041 58.8108 0.478041 58.6571 0.565878L0.751931 33.6545C0.596143 33.7436 0.5 33.9092 0.5 34.0887C0.5 34.2681 0.596143 34.4338 0.751931 34.5228L58.6571 67.6114C58.8108 67.6993 58.9995 67.6993 59.1532 67.6114L117.058 34.5228C117.214 34.4338 117.31 34.2681 117.31 34.0887C117.31 33.9092 117.214 33.7436 117.058 33.6545L59.1532 0.565878ZM58.9052 66.6014L2.00778 34.0887L58.9052 1.57587L115.803 34.0887L58.9052 66.6014ZM105.517 54.519C105.654 54.2792 105.959 54.196 106.199 54.333L117.058 60.5392C117.214 60.6282 117.31 60.7939 117.31 60.9733C117.31 61.1527 117.214 61.3184 117.058 61.4074L59.1532 94.4961C58.9995 94.5839 58.8108 94.5839 58.6571 94.4961L0.751931 61.4074C0.596143 61.3184 0.5 61.1527 0.5 60.9733C0.5 60.7939 0.596143 60.6282 0.751931 60.5392L11.6091 54.335C11.8489 54.198 12.1543 54.2813 12.2913 54.5211C12.4283 54.7608 12.345 55.0663 12.1053 55.2033L2.00778 60.9733L58.9052 93.4861L115.803 60.9733L105.703 55.2012C105.463 55.0642 105.38 54.7587 105.517 54.519ZM105.509 81.3994C105.646 81.1596 105.951 81.0763 106.191 81.2133L117.058 87.4237C117.214 87.5127 117.31 87.6784 117.31 87.8578C117.31 88.0372 117.214 88.2029 117.058 88.2919L59.1532 121.381C58.9995 121.468 58.8108 121.468 58.6571 121.381L0.751931 88.2919C0.596143 88.2029 0.5 88.0372 0.5 87.8578C0.5 87.6784 0.596143 87.5127 0.751931 87.4237L11.6091 81.2195C11.8489 81.0825 12.1543 81.1658 12.2913 81.4056C12.4283 81.6453 12.345 81.9508 12.1053 82.0878L2.00778 87.8578L58.9052 120.371L115.803 87.8578L105.695 82.0816C105.455 81.9446 105.372 81.6391 105.509 81.3994Z" fill="#35B333"/>
</svg>