<svg width="68" height="32" viewBox="0 0 68 32" fill="none" xmlns="http://www.w3.org/2000/svg">
<path d="M16.3772 32C20.1419 32 24.2532 30.06 28.5963 26.2353C30.6531 24.4235 32.436 22.4847 33.774 20.9294C33.7717 20.927 33.7693 20.9247 33.767 20.9211C33.7635 20.9259 33.7611 20.9282 33.7611 20.9282C33.7611 20.9282 31.6505 18.6188 29.3279 16.147C28.0777 17.64 26.2714 19.6776 24.1947 21.5059C20.3339 24.907 17.8124 25.62 16.3772 25.62C10.9618 25.62 6.55673 21.3035 6.55673 15.9988C6.55673 10.7235 10.9642 6.41056 16.3842 6.37762C16.6312 6.37762 16.9485 6.4082 17.3394 6.49526C15.7603 5.8082 14.0628 5.31409 12.4462 5.31409C2.52038 5.31409 0.580635 11.8235 0.448353 12.2847C0.156865 13.4788 0 14.7223 0 16C0 24.8223 7.3469 32 16.3772 32Z" fill="url(#paint0_linear)"/>
<path d="M51.0515 0C47.2867 0 43.1754 1.94 38.8324 5.76471C36.7756 7.57647 34.9927 9.51529 33.6547 11.0706C33.657 11.0729 33.6593 11.0753 33.6617 11.0788C33.6652 11.0741 33.6675 11.0718 33.6675 11.0718C33.6675 11.0718 35.7782 13.3812 38.1007 15.8529C39.351 14.36 41.1573 12.3224 43.234 10.4941C47.0947 7.09294 49.6163 6.38 51.0515 6.38C56.4668 6.38 60.8719 10.6965 60.8719 16.0012C60.8719 21.2765 56.4645 25.5894 51.0444 25.6224C50.7974 25.6224 50.4802 25.5918 50.0892 25.5047C51.6684 26.1918 53.3658 26.6859 54.9825 26.6859C64.9083 26.6859 66.848 20.1765 66.9803 19.7153C67.2741 18.5224 67.4298 17.28 67.4298 16.0024C67.4287 7.17765 60.0817 0 51.0515 0Z" fill="url(#paint1_linear)"/>
<path d="M54.9637 26.5235C49.882 26.3976 44.6001 22.3706 43.5219 21.3694C40.7382 18.7824 34.3125 11.7765 33.8092 11.2271C29.0997 5.92941 22.7186 0 16.3772 0H16.3691H16.3609C8.65222 0.0388235 2.17276 5.28471 0.449585 12.2871C0.581867 11.8259 3.11395 5.19294 12.4392 5.42353C17.521 5.54941 22.8286 9.63059 23.9056 10.6318C26.6894 13.2188 33.1162 20.2259 33.6184 20.7741C38.329 26.0718 44.7101 32 51.0515 32H51.0596H51.0678C58.7765 31.9612 65.2548 26.7153 66.9779 19.7129C66.8468 20.1741 64.289 26.7541 54.9637 26.5235Z" fill="#C3C3C4"/>
<defs>
<linearGradient id="paint0_linear" x1="24.9024" y1="29.89" x2="2.52108" y2="6.82846" gradientUnits="userSpaceOnUse">
<stop offset="0.21" stop-color="#979799"/>
<stop offset="0.3309" stop-color="#9C9C9E"/>
<stop offset="0.4769" stop-color="#ABABAD"/>
<stop offset="0.4934" stop-color="#ADADAF"/>
<stop offset="0.5746" stop-color="#BCBCBE"/>
<stop offset="0.7311" stop-color="#E4E4E5"/>
<stop offset="0.7691" stop-color="#EFEFEF"/>
</linearGradient>
<linearGradient id="paint1_linear" x1="42.5262" y1="2.10994" x2="64.9076" y2="25.1715" gradientUnits="userSpaceOnUse">
<stop offset="0.21" stop-color="#979799"/>
<stop offset="0.3309" stop-color="#9C9C9E"/>
<stop offset="0.4769" stop-color="#ABABAD"/>
<stop offset="0.4934" stop-color="#ADADAF"/>
<stop offset="0.5746" stop-color="#BCBCBE"/>
<stop offset="0.7311" stop-color="#E4E4E5"/>
<stop offset="0.7691" stop-color="#EFEFEF"/>
</linearGradient>
</defs>
</svg>
