<svg width="120" height="58" viewBox="0 0 72 35" fill="none" 
  xmlns="http://www.w3.org/2000/svg">
  <path d="M54.4215 0C50.4735 0 46.1667 2.10436 41.6205 6.25296C39.4671 8.20701 37.5828 10.3114 36.207 11.9949C36.207 11.9949 38.4203 14.49 40.8429 17.1656C42.1589 15.5422 44.0431 13.3477 46.2265 11.3636C50.2642 7.66589 52.8961 6.91433 54.4215 6.91433C60.1042 6.91433 64.7101 11.574 64.7101 17.346C64.7101 23.0578 60.1042 27.7175 54.4215 27.7776C54.1523 27.7776 53.8233 27.7475 53.4345 27.6573C55.0795 28.4089 56.874 28.95 58.5489 28.95C68.9572 28.95 70.991 21.9154 71.1106 21.4044C71.4097 20.1117 71.5891 18.7589 71.5891 17.376C71.5592 7.78614 63.8727 0 54.4215 0Z" fill="url(#paint0_linear)"/>
  <path d="M58.5195 28.7096C53.1957 28.5592 47.6626 24.2002 46.5261 23.118C43.595 20.3222 40.8434 17.1356 40.8434 17.1356C38.4208 14.46 36.2075 11.9648 36.2075 11.9648C35.4299 12.8968 31.6016 17.3159 31.6016 17.3159C31.6016 17.3159 34.1737 20.0817 34.3831 20.3222C39.4078 26.4549 46.9747 34.6318 54.4519 34.6318C62.5273 34.6018 69.3166 28.92 71.1111 21.3142C70.9615 21.8553 68.2698 28.9801 58.5195 28.7096Z" fill="#29ABE2"/>
  <path d="M18.0837 34.6619C22.0316 34.6619 26.3385 32.5576 30.8846 28.409C33.0381 26.4549 34.9223 24.3505 36.2981 22.6671C36.2981 22.6671 34.0849 20.1719 31.6623 17.4963C30.3463 19.1197 28.462 21.3143 26.2787 23.2984C22.241 26.966 19.5791 27.7476 18.0837 27.7476C12.401 27.7476 7.79504 23.0879 7.79504 17.316C7.79504 11.6041 12.401 6.94447 18.0837 6.88434C18.3529 6.88434 18.6818 6.91441 19.0707 7.00459C17.4257 6.25304 15.6311 5.71191 13.9563 5.71191C3.54799 5.71191 1.51419 12.7465 1.39456 13.2576C1.09547 14.5502 0.916016 15.903 0.916016 17.2859C0.916016 26.8758 8.60258 34.6619 18.0837 34.6619Z" fill="url(#paint1_linear)"/>
  <path d="M13.9556 5.86215C19.2794 6.01246 24.8424 10.4316 25.979 11.5139C28.91 14.3097 31.6616 17.4963 31.6616 17.4963C34.0842 20.1718 36.2975 22.667 36.2975 22.667C37.0751 21.7351 40.9034 17.3159 40.9034 17.3159C40.9034 17.3159 38.3313 14.5502 38.1219 14.3097C33.1272 8.17695 25.5602 0 18.083 0C10.0077 0.0300623 3.21836 5.71184 1.42383 13.3176C1.51355 12.8065 4.17544 5.62165 13.9556 5.86215Z" fill="#29ABE2"/>
  <defs>
    <linearGradient id="paint0_linear" x1="45.4174" y1="2.5102" x2="69.1749" y2="26.9861" gradientUnits="userSpaceOnUse">
      <stop offset="0.21" stop-color="#F15A24"/>
      <stop offset="0.6841" stop-color="#FBB03B"/>
    </linearGradient>
    <linearGradient id="paint1_linear" x1="27.0684" y1="32.1388" x2="3.31097" y2="7.66297" gradientUnits="userSpaceOnUse">
      <stop offset="0.21" stop-color="#ED1E79"/>
      <stop offset="0.8929" stop-color="#522785"/>
    </linearGradient>
  </defs>
</svg>
