<svg width="160" height="76" viewBox="0 0 160 76" fill="none" xmlns="http://www.w3.org/2000/svg">
<rect width="160" height="76" fill="black" fill-opacity="0"/>
<rect width="160" height="15.7301" fill="black" fill-opacity="0" transform="translate(0 59.7983)"/>
<path d="M5.20183 59.8428H1.13653C0.437129 59.8428 0 60.2821 0 60.9851V74.386C0 75.089 0.437129 75.5284 1.13653 75.5284H5.24555C9.96654 75.5284 13.245 72.321 13.245 67.7075C13.2013 63.0941 9.92282 59.8428 5.20183 59.8428ZM10.1851 67.6636C10.1851 70.7392 8.1306 72.8921 5.15812 72.8921H2.97248V62.3911H5.15812C8.1306 62.4351 10.1851 64.588 10.1851 67.6636Z" fill="white"/>
<path d="M36.0194 59.8423H28.0637C27.3643 59.8423 26.9271 60.2817 26.9271 60.9847V74.3855C26.9271 75.0885 27.3643 75.5279 28.0637 75.5279H28.7631C29.4625 75.5279 29.8996 75.0885 29.8996 74.3855V69.113H35.1014C35.8008 69.113 36.238 68.6297 36.238 67.9707V67.6631C36.238 66.9601 35.8008 66.5207 35.1014 66.5207H29.8996V62.3906H36.0194C36.7188 62.3906 37.1559 61.9513 37.1559 61.2483V60.9407C37.1559 60.2817 36.7188 59.8423 36.0194 59.8423Z" fill="white"/>
<path d="M55.8213 59.8423H55.1219C54.4225 59.8423 53.9854 60.2817 53.9854 60.9847V74.3855C53.9854 75.0885 54.4225 75.5279 55.1219 75.5279H55.8213C56.5207 75.5279 56.9578 75.0885 56.9578 74.3855V60.9847C56.9578 60.2817 56.5207 59.8423 55.8213 59.8423Z" fill="white"/>
<path d="M85.0652 59.8423H84.3658C83.6664 59.8423 83.2293 60.2817 83.2293 60.9847V69.9039L76.2789 60.4574C75.9729 60.018 75.5795 59.8423 75.055 59.8423H74.749C74.0496 59.8423 73.6124 60.2817 73.6124 60.9847V74.3855C73.6124 75.0885 74.0496 75.5279 74.749 75.5279H75.4484C76.1478 75.5279 76.5849 75.0885 76.5849 74.3855V65.4223L83.5353 74.9128C83.8412 75.3521 84.2347 75.5279 84.7592 75.5279H85.0652C85.7646 75.5279 86.2017 75.0885 86.2017 74.3855V60.9847C86.2017 60.2817 85.7646 59.8423 85.0652 59.8423Z" fill="white"/>
<path d="M104.692 59.8423H103.993C103.294 59.8423 102.856 60.2817 102.856 60.9847V74.3855C102.856 75.0885 103.294 75.5279 103.993 75.5279H104.692C105.392 75.5279 105.829 75.0885 105.829 74.3855V60.9847C105.829 60.2817 105.348 59.8423 104.692 59.8423Z" fill="white"/>
<path d="M132.975 59.8423H122.483C121.828 59.8423 121.347 60.2817 121.347 60.9847V61.2922C121.347 61.9513 121.784 62.4346 122.483 62.4346H126.243V74.3855C126.243 75.0885 126.68 75.5279 127.379 75.5279H128.079C128.778 75.5279 129.215 75.0885 129.215 74.3855V62.4346H132.975C133.674 62.4346 134.111 61.9952 134.111 61.2922V60.9847C134.111 60.2817 133.674 59.8423 132.975 59.8423Z" fill="white"/>
<path d="M159.902 60.3256C159.727 60.018 159.421 59.8423 158.984 59.8423H158.066C157.497 59.8423 157.104 60.062 156.842 60.5013L153.17 66.345L149.542 60.5013C149.279 60.018 148.886 59.7983 148.318 59.7983H147.4C146.963 59.7983 146.613 59.9741 146.482 60.2816C146.394 60.4574 146.307 60.8089 146.613 61.3361L151.727 69.0691V74.3416C151.727 75.0446 152.165 75.4839 152.864 75.4839H153.563C154.263 75.4839 154.7 75.0446 154.7 74.3416V69.0691L159.771 61.3361C160.12 60.8528 159.989 60.5013 159.902 60.3256Z" fill="white"/>
<rect width="103.294" height="50.6597" fill="black" fill-opacity="0" transform="translate(26.184)"/>
<rect width="58.4441" height="50.6154" fill="black" fill-opacity="0" transform="translate(71.0334)"/>
<rect width="58.4441" height="50.6154" fill="black" fill-opacity="0" transform="translate(71.0334)"/>
<path d="M104.386 0C98.6163 0 92.3217 3.07561 85.6773 9.13895C82.53 11.9949 79.7761 15.0705 77.7653 17.531C77.7653 17.531 81 21.1778 84.5408 25.0882C86.4641 22.7156 89.218 19.5081 92.4091 16.6083C98.3103 11.204 102.157 10.1056 104.386 10.1056C112.692 10.1056 119.424 16.9158 119.424 25.3518C119.424 33.6999 112.692 40.5101 104.386 40.598C103.993 40.598 103.512 40.5541 102.944 40.4223C105.348 41.5207 107.971 42.3116 110.419 42.3116C125.631 42.3116 128.603 32.0303 128.778 31.2833C129.215 29.394 129.478 27.4168 129.478 25.3957C129.434 11.3797 118.2 0 104.386 0Z" fill="url(#paint0_linear)"/>
<path d="M110.375 41.9599C102.594 41.7402 94.5073 35.3693 92.8462 33.7875C88.5623 29.7014 84.5407 25.044 84.5407 25.044C81 21.1336 77.7652 17.4868 77.7652 17.4868C76.6287 18.8489 71.0334 25.3076 71.0334 25.3076C71.0334 25.3076 74.7928 29.3499 75.0987 29.7014C82.4425 38.6646 93.5019 50.6155 104.43 50.6155C116.233 50.5716 126.155 42.2674 128.778 31.1513C128.56 31.9422 124.625 42.3553 110.375 41.9599Z" fill="#29ABE2"/>
<rect width="58.4442" height="50.6597" fill="black" fill-opacity="0" transform="translate(26.184)"/>
<rect width="58.4442" height="50.6597" fill="black" fill-opacity="0" transform="translate(26.184)"/>
<path d="M51.2752 50.6597C57.0453 50.6597 63.3399 47.5841 69.9843 41.5208C73.1316 38.6648 75.8855 35.5892 77.8963 33.1288C77.8963 33.1288 74.6615 29.482 71.1208 25.5715C69.1974 27.9442 66.4435 31.1516 63.2525 34.0514C57.3512 39.4118 53.4608 40.5542 51.2752 40.5542C42.9697 40.5542 36.2379 33.7439 36.2379 25.3079C36.2379 16.9598 42.9697 10.1496 51.2752 10.0617C51.6686 10.0617 52.1494 10.1056 52.7177 10.2374C50.3135 9.13901 47.6907 8.34814 45.2428 8.34814C30.0307 8.34814 27.0582 18.6295 26.8834 19.3764C26.4462 21.2657 26.184 23.2429 26.184 25.264C26.184 39.28 37.4182 50.6597 51.2752 50.6597Z" fill="url(#paint1_linear)"/>
<path d="M45.2428 8.56776C53.0237 8.78745 61.1543 15.2462 62.8154 16.828C67.0993 20.9141 71.1208 25.5715 71.1208 25.5715C74.6616 29.4819 77.8963 33.1287 77.8963 33.1287C79.0329 31.7666 84.6281 25.3079 84.6281 25.3079C84.6281 25.3079 80.8688 21.2656 80.5628 20.9141C73.2628 11.9509 62.2034 0 51.2752 0C39.4727 0.0439373 29.5499 8.34808 26.9271 19.4642C27.0583 18.7173 30.9487 8.21627 45.2428 8.56776Z" fill="#29ABE2"/>
<defs>
<linearGradient id="paint0_linear" x1="91.2266" y1="3.66876" x2="125.949" y2="39.4412" gradientUnits="userSpaceOnUse">
<stop offset="0.21" stop-color="#F15A24"/>
<stop offset="0.6841" stop-color="#FBB03B"/>
</linearGradient>
<linearGradient id="paint1_linear" x1="64.4067" y1="46.9721" x2="29.6843" y2="11.1997" gradientUnits="userSpaceOnUse">
<stop offset="0.21" stop-color="#ED1E79"/>
<stop offset="0.8929" stop-color="#522785"/>
</linearGradient>
</defs>
</svg>
