<svg width="24" height="24" viewBox="0 0 24 24" fill="none" xmlns="http://www.w3.org/2000/svg"><path fill-rule="evenodd" clip-rule="evenodd" d="M12 0C5.362 0 0 5.362 0 12c0 5.288 3.45 9.788 8.213 11.4.6.113.825-.262.825-.563v-2.024c-3.338.712-4.05-1.613-4.05-1.613-.563-1.387-1.35-1.762-1.35-1.762-1.088-.75.075-.713.075-.713 1.2.075 1.837 1.237 1.837 1.237 1.088 1.838 2.813 1.313 3.487 1.013.113-.788.413-1.313.75-1.613-2.662-.3-5.475-1.35-5.475-5.924 0-1.313.45-2.363 1.238-3.226-.112-.3-.525-1.537.112-3.187 0 0 1.013-.338 3.3 1.237a11.577 11.577 0 013-.412c1.013 0 2.063.15 3 .413 2.288-1.538 3.3-1.238 3.3-1.238.638 1.65.226 2.887.113 3.188.788.825 1.238 1.912 1.238 3.225 0 4.612-2.813 5.624-5.476 5.925.413.375.825 1.087.825 2.212v3.3c0 .337.226.712.825.563C20.55 21.788 24 17.288 24 12c0-6.638-5.363-12-12-12z" fill="#333"/></svg>