<svg width="24" height="24" viewBox="0 0 24 24" fill="none" xmlns="http://www.w3.org/2000/svg"><path d="M4.628 4.663a3.965 3.965 0 015.602 0l3.614 3.615 1.717-1.717-3.614-3.614a6.391 6.391 0 00-9.036 0 6.391 6.391 0 000 9.035l3.614 3.615 1.717-1.717-3.614-3.615a3.965 3.965 0 010-5.602zm2.8 4.609l7.23 7.228 1.806-1.807-7.228-7.229-1.807 1.808zm13.554 2.71l-3.614-3.614-1.717 1.717 3.614 3.614a3.965 3.965 0 010 5.602 3.965 3.965 0 01-5.602 0l-3.614-3.614-1.717 1.717 3.614 3.614a6.392 6.392 0 009.036 0 6.392 6.392 0 000-9.036z" fill="#333"/></svg>