<svg width="24" height="24" viewBox="0 0 24 24" fill="none" xmlns="http://www.w3.org/2000/svg"><path fill-rule="evenodd" clip-rule="evenodd" d="M1 4.359C1 3.017 2.036 2 3.62 2 5.2 2 6.173 3.014 6.204 4.355c0 1.317-1.004 2.36-2.616 2.36h-.03C2.006 6.715 1 5.675 1 4.359zm16.558 3.923c-2.456 0-3.995 1.33-4.28 2.263V8.412H8.461c.062 1.133 0 13.588 0 13.588h4.817v-7.498c-.002-.358-.004-.707.105-.966.331-.817 1.043-1.664 2.322-1.664 1.673 0 2.433 1.256 2.433 3.097v7.03H23v-7.554c0-4.209-2.394-6.163-5.442-6.163zm-16.004.13h4.288V22H1.554V8.413z" fill="#333"/></svg>