<svg width="24" height="24" viewBox="0 0 24 24" fill="none" xmlns="http://www.w3.org/2000/svg"><path d="M22.313 1H1.688A.688.688 0 001 1.688v20.625a.687.687 0 00.688.687h20.625a.687.687 0 00.687-.688V1.688A.687.687 0 0022.312 1zm-3.036 5.212l-1.18 1.132a.344.344 0 00-.13.33v8.314a.344.344 0 00.13.33l1.152 1.132v.248h-5.796v-.248l1.194-1.16c.117-.117.117-.151.117-.33V9.24l-3.319 8.43H11L7.133 9.24v5.65a.78.78 0 00.214.648l1.552 1.883v.248H4.497v-.248l1.553-1.883a.752.752 0 00.2-.648V8.359a.572.572 0 00-.187-.482l-1.38-1.662v-.248h4.285l3.313 7.263 2.911-7.263h4.085v.245z" fill="#333"/></svg>