<svg width="24" height="24" viewBox="0 0 24 24" fill="none" xmlns="http://www.w3.org/2000/svg"><path d="M23 5.337c-.825.336-1.684.605-2.578.706a4.468 4.468 0 001.994-2.456 9.072 9.072 0 01-2.854 1.076 4.644 4.644 0 00-3.334-1.413c-2.51 0-4.503 1.986-4.503 4.409 0 .336.034.673.103 1.01a12.809 12.809 0 01-9.281-4.611 4.404 4.404 0 00-.619 2.22 4.34 4.34 0 001.994 3.67 4.874 4.874 0 01-2.028-.54v.068c0 2.154 1.547 3.938 3.61 4.341a4.723 4.723 0 01-1.204.169 7.4 7.4 0 01-.86-.068 4.513 4.513 0 004.229 3.063 9.257 9.257 0 01-5.603 1.884c-.378 0-.722-.033-1.066-.067a13.304 13.304 0 006.91 1.952c8.318 0 12.856-6.73 12.856-12.587v-.572A9.385 9.385 0 0023 5.337z" fill="#333"/></svg>