<svg width="24" height="24" viewBox="0 0 24 24" fill="none" xmlns="http://www.w3.org/2000/svg"><path d="M23.775 7.638s-.225-1.65-.938-2.4c-.9-.938-1.95-.976-2.4-1.013C17.026 4 12 4 12 4s-5.025 0-8.4.225c-.488.038-1.5.075-2.4 1.013-.712.712-.938 2.4-.938 2.4S0 9.588 0 11.537v1.837c0 1.95.225 3.9.225 3.9s.225 1.65.938 2.4c.9.938 2.1.938 2.662 1.012 1.912.188 8.175.226 8.175.226s5.025 0 8.4-.263c.488-.037 1.5-.075 2.4-1.012.712-.713.938-2.4.938-2.4s.262-1.95.262-3.9V11.5c0-1.912-.225-3.862-.225-3.862zM9.525 15.55V8.8l6.487 3.375-6.487 3.375z" fill="#333"/></svg>